<?xml version="1.0" standalone="no"?>
<!DOCTYPE svg PUBLIC "-//W3C//DTD SVG 20010904//EN"
 "http://www.w3.org/TR/2001/REC-SVG-20010904/DTD/svg10.dtd">
<svg version="1.0" xmlns="http://www.w3.org/2000/svg"
 width="867.000000pt" height="166.000000pt" viewBox="0 0 867.000000 166.000000"
 preserveAspectRatio="xMidYMid meet">

<g transform="translate(0.000000,166.000000) scale(0.100000,-0.100000)"
fill="#000000" stroke="none">
<path d="M2335 1419 c-118 -11 -231 -100 -274 -212 -17 -48 -21 -79 -21 -186
0 -127 7 -168 37 -226 25 -48 94 -114 148 -143 l50 -27 523 -5 524 -5 19 -24
c29 -35 28 -188 -1 -219 l-21 -22 -484 0 c-472 0 -486 1 -505 20 -11 11 -20
33 -20 50 l0 30 -135 0 -135 0 0 -50 c0 -108 79 -233 184 -288 l51 -27 541 -3
c536 -3 542 -2 600 19 70 27 154 106 187 176 20 43 22 64 22 203 0 149 -1 157
-28 211 -30 63 -92 125 -159 161 l-43 23 -523 5 -524 5 -19 24 c-15 19 -19 40
-19 112 0 141 -50 129 525 129 472 0 486 -1 505 -20 11 -11 20 -33 20 -50 l0
-30 135 0 135 0 0 41 c0 124 -75 238 -200 305 -33 18 -70 19 -535 24 -275 3
-527 2 -560 -1z m1060 -87 c65 -30 112 -75 141 -137 35 -73 34 -75 -43 -75
-65 0 -69 2 -85 30 -9 16 -32 39 -50 50 -32 19 -49 20 -521 20 -464 0 -490 -1
-526 -20 -55 -28 -71 -68 -71 -180 0 -103 15 -147 58 -177 25 -17 67 -18 542
-23 499 -5 516 -6 560 -26 59 -28 108 -77 136 -139 21 -44 24 -65 24 -175 0
-110 -3 -131 -24 -175 -28 -60 -74 -107 -135 -138 -46 -22 -47 -22 -566 -22
-509 0 -521 0 -566 21 -77 36 -138 107 -154 181 l-7 33 71 0 c52 0 71 -4 71
-13 0 -15 45 -59 77 -76 15 -8 169 -11 511 -11 l489 0 34 23 c53 35 69 78 69
180 0 95 -10 125 -55 167 l-27 25 -516 5 c-500 5 -518 6 -563 26 -57 27 -115
84 -140 138 -15 33 -19 66 -19 173 0 72 5 144 11 160 17 47 59 100 101 129 72
50 111 53 638 51 483 -2 485 -2 535 -25z"/>
<path d="M3765 1420 l-40 -5 -3 -80 c-2 -44 0 -104 3 -132 l6 -53 285 0 284 0
0 -535 0 -535 140 0 140 0 0 535 0 535 288 2 287 3 3 132 3 133 -678 2 c-373
2 -696 1 -718 -2z m1323 -132 l3 -68 -291 0 -290 0 0 -535 c0 -421 -3 -535
-12 -536 -22 -2 -62 -3 -95 -1 l-33 2 0 535 0 535 -287 2 -288 3 -3 54 c-2 29
-1 60 2 67 4 11 120 13 648 11 l643 -2 3 -67z"/>
<path d="M543 1401 c-161 -55 -273 -198 -294 -376 -16 -131 -6 -575 14 -637
46 -140 160 -251 300 -293 75 -22 879 -22 954 0 167 50 288 188 315 361 5 38
8 109 6 160 -4 103 -22 141 -86 185 l-35 24 -354 3 -353 3 0 -136 0 -135 253
-2 c138 -1 263 -2 277 -2 67 -2 4 -161 -78 -195 -20 -8 -143 -11 -433 -9
l-406 3 -37 29 c-65 49 -67 62 -64 381 3 270 4 285 24 312 11 15 36 38 54 51
33 22 34 22 440 22 407 0 407 0 441 -23 45 -31 77 -79 85 -133 l6 -44 134 0
134 0 0 33 c0 58 -28 161 -56 211 -41 74 -127 154 -203 190 l-66 31 -460 2
c-420 2 -465 0 -512 -16z m900 -51 c150 -22 281 -133 311 -265 4 -16 9 -38 12
-47 5 -16 -3 -18 -63 -18 l-68 0 -18 49 c-21 59 -88 125 -143 140 -25 7 -185
11 -439 11 -381 0 -402 -1 -445 -21 -60 -27 -88 -54 -116 -114 -23 -49 -24
-57 -24 -333 0 -305 2 -318 57 -390 14 -19 49 -45 77 -58 l51 -24 405 0 c404
0 405 0 455 24 92 42 132 110 142 237 l6 79 -259 2 c-142 1 -270 2 -284 3 -24
1 -25 3 -25 65 l0 65 301 3 c182 1 312 -2 328 -8 48 -18 66 -64 66 -167 0
-105 -13 -180 -43 -238 -32 -63 -127 -149 -194 -176 -58 -24 -59 -24 -493 -24
-391 0 -439 2 -479 18 -101 39 -201 144 -231 242 -17 53 -26 539 -12 629 27
168 154 295 319 316 87 11 728 11 806 0z"/>
<path d="M5280 1290 l0 -100 564 0 c343 0 575 -4 590 -10 14 -5 35 -24 46 -42
18 -29 21 -46 18 -131 -3 -97 -3 -99 -36 -128 l-32 -29 -475 0 -475 0 0 -100
0 -100 475 0 475 0 32 -29 c33 -29 33 -31 36 -128 3 -85 0 -102 -18 -131 -11
-18 -32 -37 -46 -42 -15 -6 -247 -10 -590 -10 l-564 0 0 -100 0 -101 593 3
592 3 57 28 c60 30 114 84 145 146 15 30 18 62 18 197 l0 161 -33 52 -32 53
20 28 c39 55 50 106 50 239 0 90 -5 141 -16 174 -20 60 -95 139 -159 169 l-50
23 -592 3 -593 3 0 -101z"/>
<path d="M7015 1378 c-3 -7 -4 -294 -3 -638 l3 -625 565 -3 c346 -1 586 2 619
8 127 23 240 109 297 225 l29 60 0 345 0 345 -29 60 c-57 115 -169 201 -296
225 -83 16 -1179 13 -1185 -2z m1201 -207 c51 -23 99 -81 113 -137 15 -59 14
-511 -1 -572 -14 -57 -79 -126 -134 -141 -25 -7 -207 -11 -511 -11 l-473 0 0
440 0 440 483 0 c447 0 485 -2 523 -19z"/>
</g>
</svg>
